<?xml version="1.0" encoding="utf-8"?>
<!-- Generator: Adobe Illustrator 19.0.0, SVG Export Plug-In . SVG Version: 6.00 Build 0)  -->
<svg version="1.1" id="Layer_1" xmlns="http://www.w3.org/2000/svg" xmlns:xlink="http://www.w3.org/1999/xlink" x="0px" y="0px"
	 viewBox="0 0 128 128" style="enable-background:new 0 0 128 128;" xml:space="preserve">
<style type="text/css">
	.st0{fill:#F1F2F2;}
</style>
<g id="XMLID_2574_">
	<g id="Info_1_">
		<g id="XMLID_2575_">
			<path id="XMLID_2576_" class="st0" d="M64,32c-4.4,0-8,3.6-8,8s3.6,8,8,8c4.4,0,8-3.6,8-8S68.4,32,64,32z M64,56
				c-4.4,0-8,3.6-8,8v24c0,4.4,3.6,8,8,8c4.4,0,8-3.6,8-8V64C72,59.6,68.4,56,64,56z M64,0C28.7,0,0,28.7,0,64s28.7,64,64,64
				s64-28.7,64-64S99.3,0,64,0z M64,116c-28.7,0-52-23.3-52-52s23.3-52,52-52c28.7,0,52,23.3,52,52S92.7,116,64,116z"/>
		</g>
	</g>
</g>
</svg>
