<?xml version="1.0" encoding="utf-8"?>
<!-- Generator: Adobe Illustrator 19.0.0, SVG Export Plug-In . SVG Version: 6.00 Build 0)  -->
<svg version="1.1" id="Layer_1" xmlns="http://www.w3.org/2000/svg" xmlns:xlink="http://www.w3.org/1999/xlink" x="0px" y="0px"
	 viewBox="0 0 128 128" style="enable-background:new 0 0 128 128;" xml:space="preserve">
<style type="text/css">
	.st0{fill:#F1F2F2;}
</style>
<g id="XMLID_2594_">
	<g id="XMLID_53_">
		<path id="XMLID_57_" class="st0" d="M63.8,71.5C82.7,71.5,98,56.1,98,37.2S82.7,3,63.8,3S29.5,18.4,29.5,37.2S44.9,71.5,63.8,71.5
			z M63.8,12C77.7,12,89,23.3,89,37.2S77.7,62.4,63.8,62.4S38.6,51.1,38.6,37.2S49.9,12,63.8,12z"/>
		<path id="XMLID_54_" class="st0" d="M4.5,125h119c2.5,0,4.5-2,4.5-4.5c0-23.6-19.2-43-43-43H43c-23.6,0-43,19.2-43,43
			C0,123,2,125,4.5,125z M43,86.5h42c17.2,0,31.4,12.8,33.6,29.4H9.4C11.6,99.4,25.7,86.5,43,86.5z"/>
	</g>
</g>
</svg>
