<?xml version="1.0" encoding="utf-8"?>
<!-- Generator: Adobe Illustrator 19.0.0, SVG Export Plug-In . SVG Version: 6.00 Build 0)  -->
<svg version="1.1" id="Layer_1" xmlns="http://www.w3.org/2000/svg" xmlns:xlink="http://www.w3.org/1999/xlink" x="0px" y="0px"
	 viewBox="0 0 128 128" style="enable-background:new 0 0 128 128;" xml:space="preserve">
<style type="text/css">
	.st0{fill:#010101;}
	.st1{fill:#FFD163;}
</style>
<g id="XMLID_1344_">
	<g id="XMLID_1351_">
		<path id="XMLID_1376_" class="st0" d="M122.8,53.9c-3.4-2.4-4.6-6.8-2.8-10.6c1.7-3.7,1.5-7.8-0.5-11.3c-2-3.5-5.5-5.7-9.6-6.1
			c-4.1-0.4-7.4-3.6-7.8-7.8c-0.4-4-2.6-7.5-6.1-9.6c-3.5-2-7.6-2.2-11.3-0.5c-3.8,1.7-8.2,0.6-10.6-2.8C71.7,1.9,68.1,0,64,0
			s-7.7,1.9-10.1,5.2c-2.4,3.4-6.8,4.6-10.6,2.8C39.6,6.4,35.5,6.5,32,8.6c-3.5,2-5.7,5.5-6.1,9.6c-0.4,4.1-3.6,7.4-7.8,7.8
			c-4,0.4-7.5,2.6-9.6,6.1c-2,3.5-2.2,7.6-0.5,11.3c1.7,3.8,0.6,8.2-2.8,10.6C1.9,56.3,0,59.9,0,64s1.9,7.7,5.2,10.1
			c3.4,2.4,4.6,6.8,2.8,10.6C6.4,88.4,6.5,92.5,8.6,96c2,3.5,5.5,5.7,9.6,6.1c4.1,0.4,7.4,3.6,7.8,7.8c0.4,4,2.6,7.5,6.1,9.6
			c3.5,2,7.6,2.2,11.3,0.5c3.8-1.7,8.2-0.6,10.6,2.8c2.3,3.3,6,5.2,10.1,5.2s7.7-1.9,10.1-5.2c2.4-3.4,6.8-4.6,10.6-2.8
			c3.7,1.7,7.8,1.5,11.3-0.5c3.5-2,5.7-5.5,6.1-9.6c0.4-4.1,3.6-7.4,7.8-7.8c4-0.4,7.5-2.6,9.6-6.1c2-3.5,2.2-7.6,0.5-11.3
			c-1.7-3.8-0.6-8.2,2.8-10.6c3.3-2.3,5.2-6,5.2-10.1S126.1,56.3,122.8,53.9z M120.6,71c-4.9,3.4-6.6,9.8-4.1,15.3
			c1.2,2.6,1.1,5.4-0.3,7.9c-1.4,2.4-3.8,4-6.6,4.2c-5.9,0.5-10.6,5.2-11.2,11.2c-0.3,2.8-1.8,5.2-4.2,6.6c-2.4,1.4-5.3,1.5-7.9,0.3
			c-5.4-2.5-11.8-0.8-15.3,4.1c-1.6,2.3-4.2,3.6-7,3.6s-5.4-1.3-7-3.6c-2.4-3.4-6.2-5.2-10.1-5.2c-1.7,0-3.5,0.4-5.2,1.1
			c-2.6,1.2-5.4,1.1-7.9-0.3c-2.4-1.4-4-3.8-4.2-6.6c-0.5-5.9-5.2-10.6-11.2-11.2c-2.8-0.2-5.2-1.8-6.6-4.2
			c-1.4-2.4-1.5-5.3-0.3-7.9C14,80.8,12.3,74.4,7.4,71c-2.3-1.6-3.6-4.2-3.6-7s1.3-5.4,3.6-7c4.9-3.4,6.6-9.8,4.1-15.3
			c-1.2-2.6-1.1-5.4,0.3-7.9c1.4-2.4,3.8-4,6.6-4.2c5.9-0.5,10.6-5.2,11.2-11.2c0.3-2.8,1.8-5.2,4.2-6.6c2.4-1.4,5.3-1.5,7.9-0.3
			C47.2,14,53.6,12.3,57,7.4c1.6-2.3,4.2-3.6,7-3.6s5.4,1.3,7,3.6c3.4,4.9,9.8,6.6,15.3,4.1c2.6-1.2,5.4-1.1,7.9,0.3
			c2.4,1.4,4,3.8,4.2,6.6c0.5,5.9,5.2,10.6,11.2,11.2c2.8,0.3,5.2,1.8,6.6,4.2c1.4,2.4,1.5,5.3,0.3,7.9c-2.5,5.4-0.8,11.8,4.1,15.3
			c2.3,1.6,3.6,4.2,3.6,7S122.9,69.4,120.6,71z"/>
		<path id="XMLID_1375_" class="st0" d="M111.7,65.9c-1-0.1-1.9,0.7-2,1.7c-0.9,11.5-6.1,22.1-14.5,29.9
			c-8.5,7.9-19.6,12.2-31.2,12.2c-11.6,0-22.7-4.3-31.2-12.2c-8.5-7.8-13.6-18.5-14.5-29.9c-0.1-1-1-1.8-2-1.7c-1,0.1-1.8,1-1.7,2
			c1,12.4,6.5,23.9,15.7,32.4c9.2,8.5,21.2,13.2,33.7,13.2s24.5-4.7,33.7-13.2c9.1-8.5,14.7-20,15.7-32.4
			C113.5,66.9,112.7,66,111.7,65.9z"/>
		<path id="XMLID_1374_" class="st0" d="M16.3,62.1c0,0,0.1,0,0.1,0c1,0,1.8-0.7,1.9-1.7c0.9-11.5,6.1-22.1,14.5-29.9
			c8.5-7.9,19.6-12.2,31.2-12.2c11.6,0,22.7,4.3,31.2,12.2c8.4,7.8,13.6,18.5,14.5,29.9c0.1,1,1,1.8,2,1.7c1-0.1,1.8-1,1.7-2
			c-1-12.4-6.6-23.9-15.7-32.4C88.5,19.1,76.5,14.4,64,14.4c-12.5,0-24.5,4.7-33.7,13.2c-9.1,8.5-14.7,20-15.7,32.4
			C14.5,61.1,15.3,62,16.3,62.1z"/>
		<path id="XMLID_1355_" class="st0" d="M97,53.9c-0.6-1.7-2.1-2.8-3.8-2.9l-18.6-0.8L68,32.7c-0.6-1.7-2.2-2.7-4-2.7
			s-3.3,1.1-4,2.7l-6.6,17.5L34.8,51c-1.8,0.1-3.3,1.2-3.8,2.9c-0.6,1.7,0,3.5,1.4,4.6L47,70.2l-4.9,18c-0.5,1.7,0.2,3.5,1.6,4.6
			c1.4,1,3.3,1.1,4.8,0.1L64,82.5l15.6,10.3c0.7,0.5,1.5,0.7,2.3,0.7c0.9,0,1.7-0.3,2.5-0.8c1.4-1,2.1-2.8,1.6-4.6l-4.9-18
			l14.6-11.6C97,57.4,97.6,55.6,97,53.9z M93.3,55.6L77.7,68c-0.6,0.5-0.8,1.2-0.6,2l5.3,19.2c0.1,0.2,0,0.4-0.2,0.5
			c-0.2,0.1-0.4,0.1-0.6,0L65,78.7c-0.3-0.2-0.7-0.3-1-0.3s-0.7,0.1-1,0.3L46.4,89.7c-0.2,0.1-0.4,0.1-0.6,0
			c-0.2-0.1-0.2-0.3-0.2-0.5L50.9,70c0.2-0.7-0.1-1.5-0.6-2L34.7,55.6c-0.2-0.1-0.2-0.3-0.2-0.5c0.1-0.2,0.2-0.3,0.4-0.3l19.9-0.9
			c0.8,0,1.4-0.5,1.7-1.2l7-18.6c0.1-0.2,0.2-0.3,0.5-0.3c0.2,0,0.4,0.1,0.5,0.3l7,18.6c0.3,0.7,0.9,1.2,1.7,1.2L93,54.7
			c0.2,0,0.4,0.1,0.4,0.3C93.5,55.3,93.4,55.5,93.3,55.6z"/>
	</g>
	<path id="XMLID_1348_" class="st1" d="M77.1,70l5.3,19.2c0.1,0.2,0,0.4-0.2,0.5c-0.2,0.1-0.4,0.1-0.6,0L65,78.7
		c-0.3-0.2-0.7-0.3-1-0.3s-0.7,0.1-1,0.3L46.4,89.7c-0.2,0.1-0.4,0.1-0.6,0c-0.2-0.1-0.2-0.3-0.2-0.5L50.9,70c0.2-0.7-0.1-1.5-0.6-2
		L34.7,55.6c-0.2-0.1-0.2-0.3-0.2-0.5c0.1-0.2,0.2-0.3,0.4-0.3l19.9-0.9c0.8,0,1.4-0.5,1.7-1.2l7-18.6c0.1-0.2,0.2-0.3,0.5-0.3
		c0.2,0,0.4,0.1,0.5,0.3l7,18.6c0.3,0.7,0.9,1.2,1.7,1.2L93,54.7c0.2,0,0.4,0.1,0.4,0.3c0.1,0.2,0,0.4-0.2,0.5L77.7,68
		C77.2,68.5,76.9,69.2,77.1,70z"/>
</g>
</svg>
