<?xml version="1.0" encoding="utf-8"?>
<!-- Generator: Adobe Illustrator 19.0.0, SVG Export Plug-In . SVG Version: 6.00 Build 0)  -->
<svg version="1.1" id="Layer_1" xmlns="http://www.w3.org/2000/svg" xmlns:xlink="http://www.w3.org/1999/xlink" x="0px" y="0px"
	 viewBox="0 0 128 128" style="enable-background:new 0 0 128 128;" xml:space="preserve">
<style type="text/css">
	.st0{fill:#58595B;}
</style>
<path id="XMLID_2798_" class="st0" d="M123.9,116.6L93.4,84.9c7.8-9.3,12.1-21,12.1-33.2C105.6,23.2,82.4,0,53.9,0
	S2.2,23.2,2.2,51.7s23.2,51.7,51.7,51.7c10.7,0,20.9-3.2,29.6-9.4l30.7,31.9c1.3,1.3,3,2.1,4.9,2.1c1.8,0,3.4-0.7,4.7-1.9
	C126.4,123.5,126.5,119.3,123.9,116.6z M53.9,13.5c21.1,0,38.2,17.1,38.2,38.2S75,89.9,53.9,89.9S15.7,72.7,15.7,51.7
	S32.8,13.5,53.9,13.5z"/>
</svg>
