<?xml version="1.0" encoding="utf-8"?>
<!-- Generator: Adobe Illustrator 19.0.0, SVG Export Plug-In . SVG Version: 6.00 Build 0)  -->
<svg version="1.1" id="Layer_1" xmlns="http://www.w3.org/2000/svg" xmlns:xlink="http://www.w3.org/1999/xlink" x="0px" y="0px"
	 viewBox="0 0 128 128" style="enable-background:new 0 0 128 128;" xml:space="preserve">
<style type="text/css">
	.st0{fill:#FFFFFF;}
</style>
<g id="XMLID_2553_">
	<path id="XMLID_2554_" class="st0" d="M122.3,58.3H19.5L56,21.8c2.2-2.2,2.2-5.8,0-8.1l0,0c-2.2-2.2-5.8-2.2-8.1,0L5.7,55.9l-4,4
		c-2.2,2.2-2.2,5.8,0,8.1l4,4l42.2,42.2c2.2,2.2,5.8,2.2,8.1,0l0,0c2.2-2.2,2.2-5.8,0-8.1L19.5,69.7h102.8c3.2,0,5.7-2.6,5.7-5.7v0
		C128,60.8,125.4,58.3,122.3,58.3z"/>
</g>
</svg>
