<?xml version="1.0" encoding="utf-8"?>
<!-- Generator: Adobe Illustrator 19.0.0, SVG Export Plug-In . SVG Version: 6.00 Build 0)  -->
<svg version="1.1" id="Layer_1" xmlns="http://www.w3.org/2000/svg" xmlns:xlink="http://www.w3.org/1999/xlink" x="0px" y="0px"
	 viewBox="0 0 128 128" style="enable-background:new 0 0 128 128;" xml:space="preserve">
<style type="text/css">
	.st0{fill:#EF4657;}
</style>
<path id="XMLID_2761_" class="st0" d="M112.5,39.7c-3-11.7-9.3-21.9-17.6-28.7C86.3,3.9,75.4,0,64.1,0S41.8,3.9,33.3,10.9
	c-8,6.6-14.2,16.3-17.4,27.3c-3.2,10.9-3.3,22.4-0.2,32.4c6.9,22.9,27.3,41.1,45.8,56.4c0.7,0.6,1.7,0.9,2.6,0.9
	c1,0,1.9-0.3,2.6-0.9c8.3-6.9,17.7-14.6,26-23.5c9.4-10.1,15.6-19.9,19.1-30.1C115.3,63.2,115.5,51.2,112.5,39.7z M64.3,75.5
	C50.4,75.5,39,64.2,39,50.3C39,36.3,50.4,25,64.3,25c13.9,0,25.3,11.3,25.3,25.3C89.6,64.2,78.2,75.5,64.3,75.5z"/>
</svg>
