<?xml version="1.0" encoding="utf-8"?>
<!-- Generator: Adobe Illustrator 19.0.0, SVG Export Plug-In . SVG Version: 6.00 Build 0)  -->
<svg version="1.1" id="Layer_1" xmlns="http://www.w3.org/2000/svg" xmlns:xlink="http://www.w3.org/1999/xlink" x="0px" y="0px"
	 viewBox="0 0 128 128" style="enable-background:new 0 0 128 128;" xml:space="preserve">
<style type="text/css">
	.st0{fill:#939598;}
</style>
<g id="XMLID_1793_">
	<path id="XMLID_1805_" class="st0" d="M112.5,39.7c-3.1-11.7-9.3-21.9-17.6-28.7C86.3,3.9,75.4,0,64.1,0C52.8,0,41.8,3.9,33.3,10.9
		c-8,6.6-14.2,16.3-17.4,27.3c-3.2,10.9-3.2,22.4-0.2,32.4c6.9,22.9,27.3,41.1,45.8,56.4c0.7,0.6,1.7,0.9,2.6,0.9
		c1,0,1.9-0.3,2.6-0.9c8.3-6.8,17.7-14.6,26-23.5c9.4-10.1,15.6-19.9,19.1-30.1C115.3,63.2,115.5,51.2,112.5,39.7z M104,70.8
		C97.1,91,79,106.2,64.1,118.5c-17.8-14.8-34.8-31.2-40.6-50.3c-2.6-8.5-2.5-18.3,0.2-27.7c2.7-9.4,8-17.7,14.7-23.2
		c7.1-5.8,16.2-9.1,25.6-9.1c9.4,0,18.5,3.2,25.6,9.1c7,5.7,12.3,14.4,14.9,24.4C107.2,51.7,106.9,62,104,70.8z"/>
	<path id="XMLID_1802_" class="st0" d="M64.3,16.4c-18.7,0-33.9,15.2-33.9,33.9s15.2,33.9,33.9,33.9S98.2,69,98.2,50.3
		S83,16.4,64.3,16.4z M89.6,50.3c0,13.9-11.3,25.3-25.3,25.3C50.3,75.5,39,64.2,39,50.3S50.3,25,64.3,25
		C78.2,25,89.6,36.3,89.6,50.3z"/>
</g>
</svg>
