<?xml version="1.0" encoding="utf-8"?>
<!-- Generator: Adobe Illustrator 19.0.0, SVG Export Plug-In . SVG Version: 6.00 Build 0)  -->
<svg version="1.1" id="Layer_1" xmlns="http://www.w3.org/2000/svg" xmlns:xlink="http://www.w3.org/1999/xlink" x="0px" y="0px"
	 viewBox="0 0 128 128" style="enable-background:new 0 0 128 128;" xml:space="preserve">
<style type="text/css">
	.st0{fill:#F1F2F2;}
</style>
<path id="XMLID_2585_" class="st0" d="M64,120.9c-1.8,0-3.6-0.7-4.9-1.9c-5.2-4.5-10.2-8.8-14.6-12.5l0,0
	c-12.9-11-24-20.5-31.8-29.8C4,66.3,0,56.4,0,45.5C0,35,3.6,25.3,10.2,18.2C16.8,11,25.9,7.1,35.8,7.1c7.4,0,14.2,2.3,20.1,6.9
	c3,2.3,5.7,5.2,8.1,8.5c2.4-3.3,5.1-6.2,8.1-8.5c6-4.6,12.7-6.9,20.1-6.9c9.9,0,19,4,25.6,11.1C124.4,25.3,128,35,128,45.5
	c0,10.8-4,20.7-12.7,31.2c-7.7,9.3-18.9,18.8-31.8,29.8c-4.4,3.8-9.4,8-14.6,12.5C67.6,120.3,65.8,120.9,64,120.9z M35.8,14.6
	c-7.8,0-14.9,3.1-20.1,8.7C10.4,29,7.5,36.9,7.5,45.5c0,9.1,3.4,17.2,11,26.4c7.3,8.8,18.2,18.1,30.9,28.9l0,0
	c4.4,3.8,9.4,8,14.6,12.6c5.2-4.6,10.3-8.8,14.7-12.6c12.6-10.8,23.5-20.1,30.9-28.9c7.6-9.2,11-17.3,11-26.4
	c0-8.6-2.9-16.5-8.2-22.2c-5.2-5.6-12.3-8.7-20.1-8.7c-5.7,0-10.9,1.8-15.5,5.4c-4.1,3.2-7,7.2-8.7,10c-0.9,1.4-2.4,2.3-4.1,2.3
	s-3.2-0.9-4.1-2.3c-1.7-2.8-4.5-6.8-8.7-10C46.7,16.4,41.4,14.6,35.8,14.6z"/>
</svg>
