<?xml version="1.0" encoding="utf-8"?>
<!-- Generator: Adobe Illustrator 19.0.0, SVG Export Plug-In . SVG Version: 6.00 Build 0)  -->
<svg version="1.1" id="Layer_1" xmlns="http://www.w3.org/2000/svg" xmlns:xlink="http://www.w3.org/1999/xlink" x="0px" y="0px"
	 viewBox="0 0 128 128" style="enable-background:new 0 0 128 128;" xml:space="preserve">
<style type="text/css">
	.st0{fill:#58595B;}
</style>
<g id="XMLID_2790_">
	<path id="XMLID_2794_" class="st0" d="M64,128c28.9,0,52.5-23.6,52.5-52.5c0-23.3-15.4-43.8-37.6-50.4L67.4,2.1
		C66.7,0.8,65.4,0,64,0c-1.4,0-2.7,0.8-3.4,2.1L49.1,25.1c-22.2,6.6-37.6,27-37.6,50.4C11.5,104.4,35.1,128,64,128z M52.7,31.9
		c1-0.3,1.9-1,2.4-2L64,12.1L72.9,30c0.5,1,1.4,1.7,2.4,2C95.2,37.1,109,55,109,75.5c0,24.8-20.2,45-45,45s-45-20.2-45-45
		C19,55,32.8,37.1,52.7,31.9z"/>
	<path id="XMLID_2791_" class="st0" d="M91,63.4l-15.5-4l-8.2-13.3c-0.7-1.1-1.9-1.8-3.2-1.8c0,0,0,0,0,0c-1.3,0-2.5,0.7-3.2,1.7
		l-8.6,13.5l-15.2,3.7c-1.3,0.3-2.3,1.2-2.7,2.5c-0.4,1.2-0.2,2.6,0.7,3.6l10.2,12.4l-1.1,15.6c-0.1,1.3,0.5,2.5,1.5,3.3
		c0.7,0.5,1.4,0.7,2.2,0.7c0.5,0,0.9-0.1,1.4-0.3l14.9-5.9l14.5,5.9c1.2,0.5,2.6,0.3,3.6-0.4s1.6-2,1.6-3.3l-1-16l10.1-11.9
		c0.8-1,1.1-2.3,0.7-3.6C93.2,64.6,92.2,63.7,91,63.4z M76.1,77.7c-0.6,0.7-0.9,1.7-0.9,2.7L76,91.9l-10.3-4.2
		c-0.9-0.4-1.9-0.4-2.8,0l-10.8,4.3l0.8-11.1c0.1-1-0.2-1.9-0.9-2.7l-7.4-8.9l10.8-2.7c0.9-0.2,1.8-0.8,2.3-1.6l6.2-9.8l5.9,9.5
		c0.5,0.8,1.3,1.4,2.3,1.7l11.2,2.9L76.1,77.7z"/>
</g>
</svg>
