<?xml version="1.0" encoding="utf-8"?>
<!-- Generator: Adobe Illustrator 19.0.0, SVG Export Plug-In . SVG Version: 6.00 Build 0)  -->
<svg version="1.1" id="Layer_1" xmlns="http://www.w3.org/2000/svg" xmlns:xlink="http://www.w3.org/1999/xlink" x="0px" y="0px"
	 viewBox="0 0 128 128" style="enable-background:new 0 0 128 128;" xml:space="preserve">
<style type="text/css">
	.st0{fill:#BF2026;}
	.st1{fill:#EF4445;}
</style>
<g id="XMLID_2767_">
	<path id="XMLID_2770_" d="M64,0.7c2.8,0,5.3,1.6,6.4,4.2l49.3,112.6c1.2,2.7,0.6,5.7-1.4,7.7c-0.2,0.2-0.4,0.4-0.7,0.6
		c-2.6,2-6,2-8.6,0.1L64.1,91.6c-0.1-0.1-0.2-0.1-0.3,0L19,125.8c-2.6,2-6,1.9-8.6-0.1c-2.6-2-3.4-5.4-2.1-8.3L57.6,4.9
		C58.7,2.3,61.2,0.7,64,0.7C64,0.7,64,0.7,64,0.7C64,0.7,64,0.7,64,0.7z M113.5,120.2L67.4,14.9v70.8c0.3,0.2,45.7,34.8,45.7,34.8
		c0.1,0.1,0.1,0.1,0.3,0C113.6,120.3,113.5,120.3,113.5,120.2z M60.6,85.7l0-70.8L14.5,120.2c-0.1,0.1-0.1,0.2,0.1,0.3
		c0.1,0.1,0.2,0.1,0.3,0C14.9,120.5,60.3,85.8,60.6,85.7z"/>
	<path id="XMLID_2769_" class="st0" d="M67.4,14.9l46.1,105.3c0.1,0.1,0.1,0.2-0.1,0.3c-0.1,0.1-0.2,0.1-0.3,0
		c0,0-45.4-34.6-45.7-34.8L67.4,14.9z"/>
	<path id="XMLID_2768_" class="st1" d="M60.6,14.9l0,70.8c-0.3,0.2-45.7,34.8-45.7,34.8c-0.1,0.1-0.1,0.1-0.3,0
		c-0.1-0.1-0.1-0.2-0.1-0.3L60.6,14.9z"/>
</g>
</svg>
