<?xml version="1.0" encoding="utf-8"?>
<!-- Generator: Adobe Illustrator 19.0.0, SVG Export Plug-In . SVG Version: 6.00 Build 0)  -->
<svg version="1.1" id="Layer_1" xmlns="http://www.w3.org/2000/svg" xmlns:xlink="http://www.w3.org/1999/xlink" x="0px" y="0px"
	 viewBox="0 0 128 128" style="enable-background:new 0 0 128 128;" xml:space="preserve">
<style type="text/css">
	.st0{fill:#FFD163;}
	.st1{fill:#FBE69B;}
	.st2{fill:#EE892F;}
	.st3{fill:#010101;}
</style>
<g id="surface1_2_">
	<path id="XMLID_2350_" class="st0" d="M64,63.4v62.7c-2.3,0-4.6-0.6-6.7-1.7l-43.7-24.1c-1.9-1-2.8-2.9-2.9-4.7V32.9
		c0.1,1.9,1,3.7,2.9,4.7l43.7,24.1C59.4,62.9,61.7,63.4,64,63.4z"/>
	<path id="XMLID_2349_" class="st0" d="M64,63.4v62.7c2.3,0,4.6-0.6,6.7-1.7l43.7-24.1c1.9-1,2.8-2.9,2.9-4.7V32.9
		c-0.1,1.9-1,3.7-2.9,4.7L70.7,61.7C68.6,62.9,66.3,63.4,64,63.4z"/>
	<path id="XMLID_2348_" class="st1" d="M114.4,27.8L70.7,3.6c-4.2-2.3-9.2-2.3-13.4,0L13.6,27.8c-3.9,2.1-3.9,7.7,0,9.8l43.7,24.1
		c4.2,2.3,9.2,2.3,13.4,0l43.7-24.1C118.3,35.4,118.3,29.9,114.4,27.8z"/>
	<path id="XMLID_2347_" class="st2" d="M114.4,90.4L70.7,66.3c-4.2-2.3-9.2-2.3-13.4,0L13.6,90.4c-3.9,2.1-3.9,7.7,0,9.8l43.7,24.1
		c4.2,2.3,9.2,2.3,13.4,0l43.7-24.1C118.3,98.1,118.3,92.6,114.4,90.4z"/>
	<path id="XMLID_2346_" class="st3" d="M119.2,32.7c0,0,0-0.2,0-0.2c0-0.1,0-0.1,0-0.2c-0.1-2.6-1.5-4.9-3.9-6.2L89.8,12
		c-0.9-0.5-2.1-0.2-2.6,0.7c-0.5,0.9-0.2,2.1,0.7,2.6l25.6,14.1c1.2,0.7,1.9,1.9,1.9,3.2v0.1c0,1.4-0.7,2.6-1.9,3.2L69.8,60
		c-3.6,2-7.9,2-11.6,0L14.5,35.9c-1.2-0.7-1.9-1.9-1.9-3.2c0-1.4,0.7-2.6,1.9-3.2L58.2,5.3c3.6-2,7.9-2,11.6,0l12.5,6.9
		c0.9,0.5,2.1,0.2,2.6-0.7c0.5-0.9,0.2-2.1-0.7-2.6L71.6,2c-4.8-2.6-10.5-2.6-15.2,0L12.7,26.1c-2.3,1.3-3.7,3.6-3.9,6.2
		c0,0.1,0,36.4,0,36.4c0,1,0.9,1.9,1.9,1.9s1.9-0.9,1.9-1.9V39.2c0,0,0,0,0.1,0l43.7,24.1c2.4,1.3,5,2,7.6,2c2.6,0,5.2-0.7,7.6-2
		l43.7-24.1c0,0,0,0,0.1,0v49.6c0,0,0,0-0.1,0L75.3,66.6c-0.9-0.5-2.1-0.2-2.6,0.7c-0.5,0.9-0.2,2.1,0.7,2.6l40.1,22.1
		c1.2,0.7,1.9,1.9,1.9,3.2c0,1.4-0.7,2.6-1.9,3.2l-43.7,24.1c-3.6,2-7.9,2-11.6,0L14.5,98.6c-1.2-0.7-1.9-1.9-1.9-3.2
		c0-1.4,0.7-2.6,1.9-3.2L54.6,70c0.9-0.5,1.3-1.7,0.7-2.6c-0.5-0.9-1.7-1.3-2.6-0.7L12.7,88.8c0,0,0,0-0.1,0V75c0-1-0.9-1.9-1.9-1.9
		c-1,0-1.9,0.9-1.9,1.9c0,0,0,20,0,20.3c0,2.8,1.4,5.2,3.9,6.6L56.4,126c2.4,1.3,5,2,7.6,2c2.6,0,5.2-0.7,7.6-2l43.7-24.1
		c2.4-1.3,3.9-3.8,3.9-6.6C119.2,95,119.2,32.7,119.2,32.7z"/>
	<path id="XMLID_2345_" class="st3" d="M62.1,10.1v45.4c0,1,0.9,1.9,1.9,1.9s1.9-0.9,1.9-1.9V10.1c0-1-0.9-1.9-1.9-1.9
		S62.1,9,62.1,10.1z"/>
	<path id="XMLID_2344_" class="st3" d="M65.9,117.2V71.7c0-1-0.9-1.9-1.9-1.9c-1,0-1.9,0.9-1.9,1.9v45.4c0,1,0.9,1.9,1.9,1.9
		C65,119.1,65.9,118.2,65.9,117.2z"/>
</g>
</svg>
